<svg xmlns="http://www.w3.org/2000/svg" width="656" height="110" viewBox="0 0 656 110" role="img" aria-label="i also like cryptography and zelda, written in the Sheikah alphabet">
<g fill="#9869e3" transform="translate(8.93 40.98) scale(0.060150 -0.060150)">
<path transform="translate(2828.0 0.0)" d="M110 510Q112 514 118 514Q123 514 125 510Q127 506 142 506Q177 506 194 489Q205 479 209 453Q214 427 216 367Q222 171 226 167Q228 165 247 169Q265 173 266 182Q266 184 267 199Q267 213 267 241Q268 269 268 291Q270 435 277 468Q284 501 313 501Q326 501 334 500Q342 499 353 499Q367 499 372 502Q374 504 382 504Q411 504 427 487Q436 478 438 465Q439 453 439 390Q439 332 436 321Q432 309 413 305Q398 303 391 313Q384 326 383 380Q382 435 376 439Q373 442 352 442Q339 442 336 441Q334 439 334 433Q334 428 330 379Q326 326 324 238Q322 145 319 136Q313 116 253 112Q244 111 228 111Q180 111 176 135Q175 143 172 150Q169 156 169 163Q169 164 169 168Q170 172 170 174Q172 197 169 203Q165 213 162 351Q160 422 156 436Q152 451 131 451Q115 451 111 445Q108 439 108 412Q108 337 93 316Q87 307 78 307Q69 307 62 314Q51 328 51 392Q51 453 61 483Q64 491 69 506Q73 506 88 506Q108 506 110 510ZM61 278Q70 284 78 284Q87 284 100 272Q112 261 112 249Q112 231 92 222Q80 216 68 223Q58 227 56 232Q54 237 53 251Q52 270 61 278ZM395 276Q406 280 409 278Q412 276 421 267Q433 252 433 243Q433 231 423 224Q414 216 402 216Q384 216 377 245Q375 251 375 259Q375 269 395 276ZM67 182Q76 191 83 191Q88 191 100 185Q113 179 116 174Q120 169 120 156Q120 141 111 132Q101 122 87 122Q86 122 83 122Q81 123 80 123Q55 128 55 156Q55 171 67 182ZM370 173Q381 191 402 191Q429 191 429 161Q429 146 421 136Q413 125 400 123Q397 122 393 122Q381 122 370 145Q367 151 361 162Q364 165 370 173Z"/>
<path transform="translate(3625.2 0.0)" d="M267 506Q267 508 273 508Q278 508 287 507Q296 506 299 506Q300 506 301 506Q303 506 313 506Q324 507 331 507Q354 507 387 505Q403 505 420 497Q425 494 434 489Q434 442 434 300Q434 164 433 136Q432 109 428 106Q404 98 294 88Q275 86 246 86Q215 86 197 88Q151 93 127 93Q84 93 72 108Q68 112 64 137Q60 162 60 182Q60 184 60 188Q60 191 60 200Q60 284 54 343Q53 350 53 364Q53 377 55 383Q56 385 56 389Q56 392 55 401Q53 410 53 414Q53 420 54 422Q55 424 55 428Q55 431 53 437Q51 442 51 445Q51 451 55 455Q61 465 61 471Q61 477 70 483Q78 489 86 489Q97 489 101 474Q104 459 106 412Q109 350 113 254Q118 158 119 157Q120 156 150 154Q207 151 226 151Q241 151 243 153Q245 157 253 154Q261 152 272 152Q292 152 319 156Q350 160 366 163Q384 165 391 169Q397 174 397 186Q397 190 395 203Q392 225 395 233Q399 242 396 255Q393 267 393 349Q393 430 387 436Q381 442 343 442Q338 442 329 442Q218 442 210 434Q205 429 205 381Q205 365 207 324Q211 264 221 264Q223 264 227 266Q231 269 273 269Q313 269 318 272Q323 274 326 274Q338 274 353 263Q368 252 368 239Q368 232 366 229Q360 219 351 212Q340 204 260 204Q241 204 216 198Q203 194 195 194Q188 194 177 198Q161 203 161 207Q160 226 156 260Q153 294 150 319Q146 346 146 348Q146 355 149 384Q152 413 154 438Q155 447 157 465Q157 469 170 484Q182 499 195 496Q197 495 201 495Q205 495 211 498Q217 501 222 501Q224 501 226 501Q237 499 238 502Q240 504 244 504Q246 504 252 503Q258 502 261 502Q267 502 267 506ZM258 399Q272 401 278 401Q303 401 313 381Q322 367 316 351Q309 327 278 327Q261 327 256 334Q251 342 249 368Q248 378 247 397Q250 398 258 399Z"/>
<path transform="translate(4110.2 0.0)" d="M334 492Q339 497 355 497Q381 497 389 490Q392 487 400 487Q408 487 411 477Q415 465 415 459Q415 427 372 427Q208 424 206 422Q205 421 205 328Q205 297 206 236Q203 231 194 219Q175 196 143 196Q137 196 115 198Q60 205 56 224Q50 251 50 372Q50 430 53 446Q55 463 61 467Q63 469 69 469Q85 469 90 455Q92 450 96 384Q101 258 111 254Q123 248 132 248Q139 248 144 253Q150 257 150 275Q150 296 148 314Q145 360 145 382Q145 385 146 398Q146 411 146 418Q146 461 163 481Q169 490 179 490Q188 490 196 489Q218 486 259 486Q327 486 334 492ZM295 382Q303 384 305 384Q306 384 316 381Q326 378 331 378Q335 378 337 380Q341 384 347 384Q352 384 361 380Q370 377 373 377Q381 377 393 367Q401 358 401 353Q401 346 389 332Q379 322 365 322Q360 322 353 322Q346 323 334 324Q323 325 312 326Q273 330 265 334Q257 339 257 357Q257 369 262 372Q267 376 295 382ZM348 290Q353 293 361 291Q382 286 394 275Q406 265 406 255Q406 243 387 234Q376 230 329 230Q271 230 261 236Q252 240 250 253Q249 265 262 275Q275 287 286 284Q296 282 298 285Q300 288 323 288Q346 289 348 290ZM191 179Q196 183 201 178Q210 171 248 171Q264 171 266 174Q268 177 283 174Q287 172 302 172Q321 172 332 174Q356 176 360 176Q376 176 389 172Q397 170 413 167Q416 167 417 156Q417 153 417 149Q417 143 416 137Q411 121 395 116Q379 112 328 111Q282 111 231 114Q181 117 148 118Q98 119 86 121Q74 124 65 132Q56 139 56 148Q56 158 63 165Q72 173 130 174Q186 174 191 179Z"/>
<path transform="translate(4578.2 0.0)" d="M166 511Q170 515 173 515Q175 514 177 511Q179 507 194 507Q203 507 210 499Q218 492 218 483Q218 474 206 468Q195 463 132 457Q122 456 102 454Q102 430 102 360Q102 332 101 284Q100 236 100 227Q100 223 100 215Q100 187 102 183Q104 181 121 181Q141 181 156 184Q156 184 157 184Q175 184 195 172Q203 167 203 156Q203 143 195 135Q184 126 148 126Q144 126 133 126Q121 127 113 127Q68 128 54 146Q51 151 51 189Q51 196 52 217Q52 238 52 252Q54 444 57 482Q58 489 78 496Q98 503 126 505Q162 507 166 511ZM266 508Q281 510 331 510Q367 509 375 507Q383 506 392 498Q411 479 411 435Q411 431 411 422Q409 385 409 358Q409 293 415 199Q416 183 418 153Q415 150 406 142Q395 133 362 126Q330 119 298 119Q295 119 288 119Q274 119 266 130Q257 140 257 155Q257 173 266 178Q274 183 309 184Q351 185 353 190Q356 195 356 210Q356 219 355 238Q353 257 353 261Q353 266 354 274Q354 283 354 288Q354 294 352 339Q352 342 352 349Q352 381 355 406Q358 426 358 436Q358 452 350 455Q341 459 309 460Q280 461 272 462Q264 464 256 472Q246 483 249 494Q253 505 266 508ZM258 422Q261 425 270 422Q278 419 294 417Q322 412 322 391Q322 380 314 372Q309 365 301 364Q292 362 250 360Q244 360 234 360Q224 359 220 359Q136 359 136 388Q136 400 152 408Q167 416 188 416Q252 416 258 422ZM166 302Q167 304 177 304Q190 304 201 303Q221 301 231 301Q240 301 254 302Q269 302 276 302Q299 302 315 298Q336 292 336 270Q336 269 335 267Q335 264 335 262Q333 247 316 242Q299 238 251 238Q199 238 188 242Q178 246 165 246Q136 246 136 273Q136 297 155 297Q161 297 166 302Z"/>
<path transform="translate(5047.2 0.0)" d="M288 504Q289 505 293 507Q299 504 306 501Q330 488 330 468Q330 467 329 465Q329 463 329 461Q327 446 320 441Q313 435 298 433Q287 432 283 433Q279 434 272 442Q263 454 263 464Q263 471 272 485Q281 500 288 504ZM388 495Q393 503 406 503Q417 503 427 493Q437 483 440 469Q443 457 443 391Q443 370 442 329Q439 326 430 317Q421 308 414 306Q407 304 375 304Q360 304 331 304Q331 285 333 227Q333 219 333 205Q334 190 334 185Q334 132 321 120Q307 108 256 108Q203 108 186 118Q170 129 169 165Q166 271 156 282Q150 288 116 291Q84 293 72 304Q51 324 51 378Q51 408 55 443Q58 482 75 482Q77 482 83 480Q93 476 93 470Q93 469 94 464Q94 459 94 456Q96 444 98 412Q102 350 111 347Q117 345 119 349Q120 352 134 346Q150 341 162 341Q172 341 174 344Q176 348 194 337Q210 326 215 309Q220 293 225 228Q230 162 234 158Q240 153 259 157Q266 158 279 160Q278 171 278 204Q278 212 275 242Q273 271 273 287Q273 337 291 354Q299 362 319 362Q326 362 338 362Q344 362 361 362Q378 362 378 368Q380 398 380 414Q380 447 377 451Q376 452 376 457Q376 478 388 495ZM183 496Q183 500 186 500Q189 500 200 494Q211 488 213 488Q213 488 214 488Q216 490 223 486Q231 483 231 469Q231 458 223 439Q215 423 209 419Q204 416 186 416Q167 416 164 426Q160 436 160 457Q160 471 162 475Q164 479 172 484Q183 490 183 496ZM401 248Q416 259 424 259Q443 259 443 196Q443 191 443 181Q443 169 442 134Q431 126 417 118Q413 122 406 129Q384 151 384 176Q384 180 385 182Q389 190 389 213Q389 229 391 235Q393 241 401 248ZM72 240Q76 245 83 245Q92 245 101 236Q110 226 111 213Q113 190 113 156Q113 149 113 136Q111 118 85 118Q70 118 66 127Q61 133 59 174Q59 179 59 187Q58 196 58 199Q58 225 72 240Z"/>
<path transform="translate(5850.4 0.0)" d="M334 492Q339 497 355 497Q381 497 389 490Q392 487 400 487Q408 487 411 477Q415 465 415 459Q415 427 372 427Q208 424 206 422Q205 421 205 328Q205 297 206 236Q203 231 194 219Q175 196 143 196Q137 196 115 198Q60 205 56 224Q50 251 50 372Q50 430 53 446Q55 463 61 467Q63 469 69 469Q85 469 90 455Q92 450 96 384Q101 258 111 254Q123 248 132 248Q139 248 144 253Q150 257 150 275Q150 296 148 314Q145 360 145 382Q145 385 146 398Q146 411 146 418Q146 461 163 481Q169 490 179 490Q188 490 196 489Q218 486 259 486Q327 486 334 492ZM295 382Q303 384 305 384Q306 384 316 381Q326 378 331 378Q335 378 337 380Q341 384 347 384Q352 384 361 380Q370 377 373 377Q381 377 393 367Q401 358 401 353Q401 346 389 332Q379 322 365 322Q360 322 353 322Q346 323 334 324Q323 325 312 326Q273 330 265 334Q257 339 257 357Q257 369 262 372Q267 376 295 382ZM348 290Q353 293 361 291Q382 286 394 275Q406 265 406 255Q406 243 387 234Q376 230 329 230Q271 230 261 236Q252 240 250 253Q249 265 262 275Q275 287 286 284Q296 282 298 285Q300 288 323 288Q346 289 348 290ZM191 179Q196 183 201 178Q210 171 248 171Q264 171 266 174Q268 177 283 174Q287 172 302 172Q321 172 332 174Q356 176 360 176Q376 176 389 172Q397 170 413 167Q416 167 417 156Q417 153 417 149Q417 143 416 137Q411 121 395 116Q379 112 328 111Q282 111 231 114Q181 117 148 118Q98 119 86 121Q74 124 65 132Q56 139 56 148Q56 158 63 165Q72 173 130 174Q186 174 191 179Z"/>
<path transform="translate(6318.4 0.0)" d="M110 510Q112 514 118 514Q123 514 125 510Q127 506 142 506Q177 506 194 489Q205 479 209 453Q214 427 216 367Q222 171 226 167Q228 165 247 169Q265 173 266 182Q266 184 267 199Q267 213 267 241Q268 269 268 291Q270 435 277 468Q284 501 313 501Q326 501 334 500Q342 499 353 499Q367 499 372 502Q374 504 382 504Q411 504 427 487Q436 478 438 465Q439 453 439 390Q439 332 436 321Q432 309 413 305Q398 303 391 313Q384 326 383 380Q382 435 376 439Q373 442 352 442Q339 442 336 441Q334 439 334 433Q334 428 330 379Q326 326 324 238Q322 145 319 136Q313 116 253 112Q244 111 228 111Q180 111 176 135Q175 143 172 150Q169 156 169 163Q169 164 169 168Q170 172 170 174Q172 197 169 203Q165 213 162 351Q160 422 156 436Q152 451 131 451Q115 451 111 445Q108 439 108 412Q108 337 93 316Q87 307 78 307Q69 307 62 314Q51 328 51 392Q51 453 61 483Q64 491 69 506Q73 506 88 506Q108 506 110 510ZM61 278Q70 284 78 284Q87 284 100 272Q112 261 112 249Q112 231 92 222Q80 216 68 223Q58 227 56 232Q54 237 53 251Q52 270 61 278ZM395 276Q406 280 409 278Q412 276 421 267Q433 252 433 243Q433 231 423 224Q414 216 402 216Q384 216 377 245Q375 251 375 259Q375 269 395 276ZM67 182Q76 191 83 191Q88 191 100 185Q113 179 116 174Q120 169 120 156Q120 141 111 132Q101 122 87 122Q86 122 83 122Q81 123 80 123Q55 128 55 156Q55 171 67 182ZM370 173Q381 191 402 191Q429 191 429 161Q429 146 421 136Q413 125 400 123Q397 122 393 122Q381 122 370 145Q367 151 361 162Q364 165 370 173Z"/>
<path transform="translate(6808.4 0.0)" d="M288 485Q295 496 298 497Q299 497 299 497Q302 497 307 494Q315 488 318 471Q321 454 323 389Q324 368 324 341Q324 318 315 310Q306 301 299 301Q297 301 285 305Q270 311 270 358Q270 376 272 392Q275 411 275 442Q276 471 288 485ZM74 486Q83 500 100 482Q109 474 109 412Q109 353 108 307Q107 252 106 140Q104 138 96 130Q86 120 80 120Q74 120 62 129Q59 132 51 138Q51 168 52 256Q54 406 59 439Q65 474 74 486ZM166 486Q183 500 190 484Q201 463 205 390Q207 347 209 340Q211 325 209 311Q207 297 193 295Q182 294 179 295Q175 297 167 306Q156 321 158 331Q160 345 160 380Q160 398 160 433Q160 481 166 486ZM390 482Q393 486 401 486Q413 486 420 479Q427 472 431 457Q434 442 434 332Q434 278 432 200Q431 166 429 150Q427 134 422 127Q417 121 408 119Q406 119 402 119Q375 119 373 180Q373 189 372 210Q372 230 372 237Q372 249 374 258Q376 267 376 270Q376 272 374 285Q370 299 376 310Q380 317 380 325Q380 328 378 342Q374 364 377 367Q381 373 381 387Q381 389 381 394Q381 471 390 482ZM266 270Q268 281 271 283Q273 285 282 283Q303 278 309 268Q314 258 316 224Q318 205 318 175Q318 123 297 113Q289 110 285 110Q266 110 266 163Q266 168 266 179Q266 217 263 220Q260 221 260 232Q260 248 266 270ZM152 260Q162 282 174 282Q180 282 188 275Q202 262 202 207Q202 198 202 181Q201 140 199 132Q198 124 190 117Q182 109 174 109Q166 109 158 123Q147 139 147 177Q147 220 150 223Q153 228 148 238Q144 247 152 260Z"/>
<path transform="translate(7293.4 0.0)" d="M259 506Q260 508 262 508Q265 508 270 506Q284 501 297 501Q303 501 307 503Q308 504 310 504Q316 504 325 497Q333 489 335 482Q338 473 338 426Q338 386 337 359Q336 330 334 323Q333 316 326 309Q316 300 309 300Q302 300 293 309Q284 319 284 354Q284 400 286 417Q287 426 289 445Q285 446 274 449Q270 450 258 450Q221 450 216 443Q214 441 212 400Q207 315 185 315Q180 315 178 317Q169 323 164 381Q164 396 160 402Q156 407 162 413Q167 420 163 426Q159 433 161 455Q162 473 170 485Q178 498 189 498Q195 498 198 503Q200 507 210 503Q216 500 230 500Q256 500 259 506ZM69 490Q74 497 76 497Q79 498 88 493Q108 484 108 454Q108 453 107 449Q106 444 106 442Q104 422 95 416Q90 412 82 412Q69 412 58 432Q51 445 51 451Q51 455 56 467Q60 480 69 490ZM384 484Q391 498 403 498Q415 498 425 486Q435 476 435 452Q435 428 427 420Q418 411 409 411Q402 411 394 415Q376 423 376 455Q376 471 384 484ZM72 395Q82 402 94 390Q102 382 102 350Q102 287 111 283Q116 280 134 278Q152 274 163 265Q170 258 172 249Q173 241 173 202Q173 181 173 140Q171 131 162 122Q154 113 143 112Q123 108 95 108Q76 108 72 110Q54 119 54 139Q54 150 60 158Q67 165 80 163Q82 163 86 163Q92 163 96 165Q99 167 103 170Q109 173 112 175Q121 180 121 201Q121 227 100 227Q92 227 79 239Q67 250 61 261Q57 272 57 302Q57 386 72 395ZM427 146Q427 119 389 119Q387 119 382 119Q378 120 376 120Q346 122 335 135Q325 148 323 188Q321 217 317 220Q317 221 317 221Q316 222 316 223Q316 237 329 263Q332 271 348 271Q382 271 382 316Q382 336 380 348Q378 367 378 369Q378 377 384 383Q392 391 407 390Q420 389 423 378Q427 368 429 327Q430 296 433 275Q434 271 434 263Q434 220 388 220Q372 220 372 212Q372 207 374 196Q377 180 389 176Q417 165 422 161Q427 157 427 146Z"/>
<path transform="translate(0.0 -1075.2)" d="M93 523Q96 523 105 523Q135 521 141 518Q150 514 161 517Q171 520 183 515Q196 509 203 511Q203 511 205 511Q214 511 232 486Q239 477 239 450Q239 380 221 365Q216 360 199 355Q181 350 172 350Q171 350 167 350Q163 350 157 350Q151 351 145 351Q122 351 118 347Q114 343 112 322Q112 318 111 314Q111 309 111 308Q111 301 118 299Q125 297 164 291Q198 286 206 275Q215 265 217 228Q217 223 218 212Q218 202 218 197Q218 191 218 182Q217 172 217 169Q215 143 202 132Q197 128 187 121Q172 121 127 122Q78 123 69 126Q60 130 54 150Q50 164 56 172Q72 189 95 189Q97 189 101 189Q119 187 121 191Q124 195 127 194Q130 193 136 190Q142 188 146 188Q157 189 158 193Q160 196 160 212Q160 219 160 233Q154 234 136 237Q90 242 73 254Q65 259 58 274Q51 290 51 302Q51 310 55 313Q59 316 58 338Q57 343 57 351Q57 365 66 377Q75 393 82 400Q94 411 147 411Q151 411 159 411Q161 411 168 411Q179 411 182 415Q185 419 187 437Q187 438 188 441Q188 444 188 446Q188 459 173 463Q158 468 92 477Q60 481 60 498Q60 523 93 523ZM322 508Q341 520 395 520Q398 520 403 520Q428 519 438 508Q447 498 441 485Q437 476 429 474Q421 471 390 468Q368 465 361 462Q354 459 354 451Q354 449 356 437Q357 426 357 418Q356 404 362 401Q369 398 392 396Q435 393 446 369Q454 353 454 302Q454 272 451 262Q443 243 433 237Q423 231 390 227Q348 221 346 219Q341 217 341 193Q341 168 346 165Q352 161 392 159Q428 157 438 155Q449 153 459 143Q467 135 467 128Q467 121 458 110Q455 106 449 99Q435 99 395 99Q345 100 334 101Q323 102 315 110Q306 117 302 117Q297 117 297 124Q297 132 290 137Q284 142 284 190Q285 225 286 234Q288 244 297 258Q314 286 328 286Q330 286 334 284Q336 282 344 282Q355 282 366 284Q392 288 398 302Q404 315 401 328Q399 337 396 339Q392 341 380 342Q346 344 336 348Q327 351 317 364Q313 369 305 380Q305 393 306 432Q309 500 322 508Z"/>
<path transform="translate(518.0 -1075.2)" d="M276 462Q278 492 284 500Q291 509 308 509Q312 509 326 508Q340 508 350 508Q414 505 429 485Q440 470 440 390Q440 383 440 369Q438 323 435 312Q431 302 414 299Q403 297 400 299Q396 301 392 311Q380 338 380 377Q380 384 382 390Q383 391 383 395Q383 401 378 418Q374 434 374 437Q374 444 369 444Q364 445 352 444Q340 442 339 441Q338 440 336 419Q332 358 326 350Q322 344 325 341Q325 340 326 338Q326 332 318 324Q310 315 301 312Q291 308 244 304Q211 302 210 302Q197 302 187 311Q176 323 176 333Q176 344 173 346Q171 347 171 385Q171 390 172 399Q172 408 172 411Q172 431 167 435Q162 439 142 439Q139 439 131 439Q114 439 110 434Q105 429 105 404Q105 394 105 374Q105 312 101 308Q97 304 87 304Q76 303 67 318Q53 342 53 407Q53 426 54 435Q54 441 53 447Q52 454 52 455Q52 462 68 477Q85 494 95 494Q97 494 102 493Q106 493 110 493Q112 493 130 495Q134 496 144 496Q188 496 206 482Q224 467 224 415Q224 373 227 370Q229 366 248 364Q254 363 266 361Q267 367 269 384Q275 425 276 462ZM324 276Q326 280 333 280Q336 280 346 279Q355 278 360 278Q406 278 415 276Q425 275 430 269Q439 259 439 248Q439 239 432 231Q423 222 387 220Q347 218 340 215Q334 212 334 197Q334 153 314 133Q302 121 267 119Q258 118 242 118Q200 118 187 130Q170 147 172 189Q172 207 164 210Q141 219 98 224Q85 225 76 234Q68 243 68 252Q68 264 82 267Q85 268 100 268Q130 268 173 263Q194 261 207 251Q220 241 220 227Q222 193 225 182Q228 172 240 172Q246 172 251 173Q270 175 275 182Q280 189 281 213Q284 264 308 268Q322 270 324 276ZM369 185Q380 195 385 195Q392 195 403 187Q414 180 418 174Q420 171 420 163Q420 151 411 139Q401 127 389 127Q376 127 367 138Q357 148 357 162Q357 177 369 185ZM70 155Q70 189 113 189Q113 189 114 189Q119 189 127 177Q136 164 136 156Q136 151 123 137Q110 124 95 124Q84 124 77 132Q70 140 70 155Z"/>
<path transform="translate(1010.0 -1075.2)" d="M87 512Q95 512 118 512Q172 508 190 502Q209 496 216 479Q222 464 222 374Q222 355 222 317Q222 169 218 157Q215 145 201 137Q190 131 187 131Q184 131 180 137Q160 165 160 200Q160 204 160 212Q160 216 160 226Q160 245 158 253Q155 262 158 272Q160 281 160 295Q160 307 159 313Q157 332 157 339Q157 341 158 344Q158 345 158 347Q163 355 163 395Q163 414 162 424Q161 445 153 451Q144 456 114 456Q80 456 72 460Q63 464 63 480Q63 508 87 512ZM285 495Q298 508 310 493Q319 480 322 446Q325 412 327 311Q327 282 327 250Q328 218 328 202Q329 185 329 184Q329 180 341 176Q353 172 365 172Q367 172 369 173Q371 173 372 173Q375 174 380 174Q397 174 416 164Q435 155 435 144Q435 139 423 127Q419 123 411 115Q398 115 358 117Q308 119 297 123Q286 127 276 147Q267 168 267 186Q267 194 268 197Q270 209 270 211Q270 215 269 223Q268 230 268 237Q268 240 268 246Q270 266 270 299Q270 334 274 340Q278 344 278 417Q278 467 279 478Q280 489 285 495ZM390 490Q392 495 400 495Q409 496 414 492Q427 482 431 456Q434 429 435 346Q435 328 435 293Q435 253 429 243Q422 230 419 230Q417 230 411 228Q404 226 388 241Q371 255 374 262Q376 266 378 340Q378 409 382 417Q383 418 383 435Q383 467 390 490ZM59 365Q67 381 79 381Q84 381 91 377Q102 371 106 348Q111 326 111 264Q111 187 113 167Q114 162 114 155Q114 145 103 138Q90 127 85 127Q79 127 71 134Q63 140 63 145Q63 150 59 160Q55 167 53 227Q51 303 51 310Q51 349 59 365Z"/>
<path transform="translate(1497.0 -1075.2)" d="M387 512Q389 517 395 530Q400 528 416 521Q430 515 434 510Q438 506 441 495Q446 479 449 430Q455 283 455 234Q455 189 453 174Q449 133 421 124Q393 115 283 114Q92 114 71 125Q62 129 60 130Q58 131 55 137Q52 143 52 153Q51 162 51 181Q51 230 52 271Q52 310 52 386Q51 406 57 441Q62 476 68 489Q76 510 88 510Q93 510 98 505Q104 498 105 342Q105 290 105 185Q108 184 117 181Q124 179 133 183Q142 186 146 180Q156 171 193 171Q207 171 213 174Q217 176 225 176Q229 176 248 174Q258 172 271 172Q282 172 284 174Q288 176 292 176Q296 176 304 174Q313 172 317 172Q322 172 326 174Q337 180 347 177Q360 174 370 180Q380 186 383 185Q387 183 390 187Q396 198 396 248Q396 269 394 273Q389 287 389 349Q387 416 384 425Q380 435 383 450Q387 463 383 468Q380 474 380 482Q380 497 387 512ZM195 496Q216 497 251 497Q329 497 345 480Q351 474 351 468Q351 459 338 445Q333 440 325 430Q317 431 296 434Q255 438 209 445Q164 453 160 456Q153 462 153 476Q153 484 155 487Q158 495 195 496ZM202 381Q202 383 206 383Q209 383 221 380Q232 378 237 378Q241 378 243 380Q244 383 257 383Q281 383 287 377Q291 373 304 373Q338 373 338 343Q338 337 337 333Q332 309 298 309Q297 309 294 310Q291 310 289 310Q202 319 191 323Q183 325 175 325Q167 325 157 334Q146 343 146 350Q146 356 157 367Q167 377 184 377Q202 377 202 381ZM240 270Q243 273 253 270Q263 266 269 269Q276 273 282 270Q287 267 316 267Q347 267 360 259Q378 248 378 232Q378 223 371 217Q357 207 356 206Q352 203 313 203Q259 203 217 207Q193 209 183 209Q181 209 172 208Q172 208 171 208Q166 208 158 218Q151 227 151 234Q151 243 159 250Q167 257 178 259Q194 261 194 265Q194 269 215 269Q238 269 240 270Z"/>
<path transform="translate(2004.0 -1075.2)" d="M366 497Q367 499 371 507Q375 505 387 499Q402 492 404 484Q418 442 418 341Q418 286 412 267Q408 253 399 240Q388 223 318 220Q313 220 302 220Q281 220 273 225Q265 230 262 245Q261 250 259 254Q256 259 255 262Q254 266 254 272Q254 273 254 278Q255 282 255 285Q255 287 255 292Q255 307 249 313Q243 319 226 319Q224 319 218 319Q198 319 198 315Q198 309 201 292Q202 286 202 276Q202 266 197 253Q189 234 183 230Q176 225 128 225Q93 225 81 228Q66 233 60 247Q54 260 52 299Q51 311 51 356Q51 417 53 460Q55 487 71 487Q82 487 86 469Q90 451 92 378Q95 313 96 302Q98 284 101 277Q104 270 114 270Q116 270 128 272Q134 273 137 274Q139 275 140 279Q141 282 139 287Q137 307 137 309Q137 319 141 333Q147 355 154 364Q160 373 172 375Q188 379 191 381Q197 384 204 381Q208 379 244 375Q284 372 293 362Q302 353 306 315Q307 300 309 292Q310 285 312 282Q315 279 321 279Q327 279 331 280Q348 282 353 288Q358 295 358 316Q358 319 358 327Q357 334 357 339Q355 382 353 389Q350 394 354 398Q358 399 358 412Q358 424 353 433Q348 442 348 454Q348 469 366 497ZM129 484Q151 490 225 490Q248 492 276 492Q309 492 318 482Q328 473 328 464Q328 453 313 446Q299 439 245 439Q134 441 121 449Q114 453 115 466Q116 481 129 484ZM157 193Q159 195 166 194Q174 194 175 190Q176 187 202 187Q236 187 240 191Q243 195 254 191Q265 188 268 191Q273 197 286 189Q298 183 312 189Q319 193 328 193Q336 193 352 189Q368 185 373 184Q418 181 421 166Q422 162 422 155Q422 138 407 128Q397 121 378 121Q354 121 332 122Q314 123 244 124Q174 126 140 131Q112 135 98 135Q90 135 87 134Q76 132 71 134Q67 135 60 142Q51 154 53 169Q55 184 57 186Q90 188 157 193Z"/>
<path transform="translate(2477.0 -1075.2)" d="M288 504Q289 505 293 507Q299 504 306 501Q330 488 330 468Q330 467 329 465Q329 463 329 461Q327 446 320 441Q313 435 298 433Q287 432 283 433Q279 434 272 442Q263 454 263 464Q263 471 272 485Q281 500 288 504ZM388 495Q393 503 406 503Q417 503 427 493Q437 483 440 469Q443 457 443 391Q443 370 442 329Q439 326 430 317Q421 308 414 306Q407 304 375 304Q360 304 331 304Q331 285 333 227Q333 219 333 205Q334 190 334 185Q334 132 321 120Q307 108 256 108Q203 108 186 118Q170 129 169 165Q166 271 156 282Q150 288 116 291Q84 293 72 304Q51 324 51 378Q51 408 55 443Q58 482 75 482Q77 482 83 480Q93 476 93 470Q93 469 94 464Q94 459 94 456Q96 444 98 412Q102 350 111 347Q117 345 119 349Q120 352 134 346Q150 341 162 341Q172 341 174 344Q176 348 194 337Q210 326 215 309Q220 293 225 228Q230 162 234 158Q240 153 259 157Q266 158 279 160Q278 171 278 204Q278 212 275 242Q273 271 273 287Q273 337 291 354Q299 362 319 362Q326 362 338 362Q344 362 361 362Q378 362 378 368Q380 398 380 414Q380 447 377 451Q376 452 376 457Q376 478 388 495ZM183 496Q183 500 186 500Q189 500 200 494Q211 488 213 488Q213 488 214 488Q216 490 223 486Q231 483 231 469Q231 458 223 439Q215 423 209 419Q204 416 186 416Q167 416 164 426Q160 436 160 457Q160 471 162 475Q164 479 172 484Q183 490 183 496ZM401 248Q416 259 424 259Q443 259 443 196Q443 191 443 181Q443 169 442 134Q431 126 417 118Q413 122 406 129Q384 151 384 176Q384 180 385 182Q389 190 389 213Q389 229 391 235Q393 241 401 248ZM72 240Q76 245 83 245Q92 245 101 236Q110 226 111 213Q113 190 113 156Q113 149 113 136Q111 118 85 118Q70 118 66 127Q61 133 59 174Q59 179 59 187Q58 196 58 199Q58 225 72 240Z"/>
<path transform="translate(2973.0 -1075.2)" d="M281 494Q283 498 288 498Q294 498 296 495Q299 492 351 492Q400 492 417 485Q433 479 442 459Q451 441 451 360Q451 180 442 135Q440 120 426 112Q422 109 413 103Q410 106 401 115Q390 126 388 161Q386 198 386 202Q386 203 387 214Q387 224 387 231Q387 239 387 249Q386 260 386 261Q386 270 389 293Q391 303 391 317Q391 330 389 335Q387 343 387 348Q387 350 391 377Q394 393 394 407Q394 433 377 436Q374 437 355 437Q307 437 212 432Q118 426 115 423Q110 418 110 338Q110 292 113 289Q116 284 133 284Q148 284 155 292Q161 301 162 324Q162 331 165 368Q166 384 168 389Q171 393 179 395Q191 399 191 402Q191 404 197 412Q201 419 213 414Q216 412 222 412Q225 412 231 414Q238 416 241 416Q244 416 250 414Q262 410 282 413Q305 417 310 415Q327 411 347 380Q353 370 353 333Q353 288 352 249Q350 151 347 133Q343 115 324 106Q309 100 295 100Q291 100 262 102Q182 109 89 109Q65 109 65 136Q65 146 67 152Q70 157 82 166Q100 182 109 177Q113 174 129 174Q141 174 150 175Q155 175 165 175Q184 175 188 173Q195 169 225 169Q255 169 261 173Q263 175 266 175Q270 175 280 172Q289 169 291 169Q294 169 294 172Q294 174 291 180Q286 189 291 205Q295 221 292 227Q287 233 291 241Q294 246 294 298Q293 315 292 349Q288 350 276 351Q275 351 272 352Q268 352 266 352Q231 352 225 346Q223 344 221 302Q219 259 209 246Q201 233 187 229Q177 227 173 223Q167 219 132 219Q113 219 109 221Q104 225 95 221Q84 217 70 224Q61 227 58 230Q55 232 53 239Q51 246 51 259Q51 262 52 273Q52 285 52 293Q52 300 53 323Q54 345 54 355Q54 390 57 393Q60 396 59 407Q59 418 56 420Q52 422 56 442Q60 468 65 473Q69 477 91 479Q119 483 123 487Q127 492 135 492Q137 492 158 489Q178 487 180 487Q188 487 200 489Q212 492 225 492Q230 492 240 492Q244 492 256 492Q279 492 281 494Z"/>
<path transform="translate(3475.0 -1075.2)" d="M276 462Q278 492 284 500Q291 509 308 509Q312 509 326 508Q340 508 350 508Q414 505 429 485Q440 470 440 390Q440 383 440 369Q438 323 435 312Q431 302 414 299Q403 297 400 299Q396 301 392 311Q380 338 380 377Q380 384 382 390Q383 391 383 395Q383 401 378 418Q374 434 374 437Q374 444 369 444Q364 445 352 444Q340 442 339 441Q338 440 336 419Q332 358 326 350Q322 344 325 341Q325 340 326 338Q326 332 318 324Q310 315 301 312Q291 308 244 304Q211 302 210 302Q197 302 187 311Q176 323 176 333Q176 344 173 346Q171 347 171 385Q171 390 172 399Q172 408 172 411Q172 431 167 435Q162 439 142 439Q139 439 131 439Q114 439 110 434Q105 429 105 404Q105 394 105 374Q105 312 101 308Q97 304 87 304Q76 303 67 318Q53 342 53 407Q53 426 54 435Q54 441 53 447Q52 454 52 455Q52 462 68 477Q85 494 95 494Q97 494 102 493Q106 493 110 493Q112 493 130 495Q134 496 144 496Q188 496 206 482Q224 467 224 415Q224 373 227 370Q229 366 248 364Q254 363 266 361Q267 367 269 384Q275 425 276 462ZM324 276Q326 280 333 280Q336 280 346 279Q355 278 360 278Q406 278 415 276Q425 275 430 269Q439 259 439 248Q439 239 432 231Q423 222 387 220Q347 218 340 215Q334 212 334 197Q334 153 314 133Q302 121 267 119Q258 118 242 118Q200 118 187 130Q170 147 172 189Q172 207 164 210Q141 219 98 224Q85 225 76 234Q68 243 68 252Q68 264 82 267Q85 268 100 268Q130 268 173 263Q194 261 207 251Q220 241 220 227Q222 193 225 182Q228 172 240 172Q246 172 251 173Q270 175 275 182Q280 189 281 213Q284 264 308 268Q322 270 324 276ZM369 185Q380 195 385 195Q392 195 403 187Q414 180 418 174Q420 171 420 163Q420 151 411 139Q401 127 389 127Q376 127 367 138Q357 148 357 162Q357 177 369 185ZM70 155Q70 189 113 189Q113 189 114 189Q119 189 127 177Q136 164 136 156Q136 151 123 137Q110 124 95 124Q84 124 77 132Q70 140 70 155Z"/>
<path transform="translate(3967.0 -1075.2)" d="M267 506Q267 508 273 508Q278 508 287 507Q296 506 299 506Q300 506 301 506Q303 506 313 506Q324 507 331 507Q354 507 387 505Q403 505 420 497Q425 494 434 489Q434 442 434 300Q434 164 433 136Q432 109 428 106Q404 98 294 88Q275 86 246 86Q215 86 197 88Q151 93 127 93Q84 93 72 108Q68 112 64 137Q60 162 60 182Q60 184 60 188Q60 191 60 200Q60 284 54 343Q53 350 53 364Q53 377 55 383Q56 385 56 389Q56 392 55 401Q53 410 53 414Q53 420 54 422Q55 424 55 428Q55 431 53 437Q51 442 51 445Q51 451 55 455Q61 465 61 471Q61 477 70 483Q78 489 86 489Q97 489 101 474Q104 459 106 412Q109 350 113 254Q118 158 119 157Q120 156 150 154Q207 151 226 151Q241 151 243 153Q245 157 253 154Q261 152 272 152Q292 152 319 156Q350 160 366 163Q384 165 391 169Q397 174 397 186Q397 190 395 203Q392 225 395 233Q399 242 396 255Q393 267 393 349Q393 430 387 436Q381 442 343 442Q338 442 329 442Q218 442 210 434Q205 429 205 381Q205 365 207 324Q211 264 221 264Q223 264 227 266Q231 269 273 269Q313 269 318 272Q323 274 326 274Q338 274 353 263Q368 252 368 239Q368 232 366 229Q360 219 351 212Q340 204 260 204Q241 204 216 198Q203 194 195 194Q188 194 177 198Q161 203 161 207Q160 226 156 260Q153 294 150 319Q146 346 146 348Q146 355 149 384Q152 413 154 438Q155 447 157 465Q157 469 170 484Q182 499 195 496Q197 495 201 495Q205 495 211 498Q217 501 222 501Q224 501 226 501Q237 499 238 502Q240 504 244 504Q246 504 252 503Q258 502 261 502Q267 502 267 506ZM258 399Q272 401 278 401Q303 401 313 381Q322 367 316 351Q309 327 278 327Q261 327 256 334Q251 342 249 368Q248 378 247 397Q250 398 258 399Z"/>
<path transform="translate(4452.0 -1075.2)" d="M387 512Q389 517 395 530Q400 528 416 521Q430 515 434 510Q438 506 441 495Q446 479 449 430Q455 283 455 234Q455 189 453 174Q449 133 421 124Q393 115 283 114Q92 114 71 125Q62 129 60 130Q58 131 55 137Q52 143 52 153Q51 162 51 181Q51 230 52 271Q52 310 52 386Q51 406 57 441Q62 476 68 489Q76 510 88 510Q93 510 98 505Q104 498 105 342Q105 290 105 185Q108 184 117 181Q124 179 133 183Q142 186 146 180Q156 171 193 171Q207 171 213 174Q217 176 225 176Q229 176 248 174Q258 172 271 172Q282 172 284 174Q288 176 292 176Q296 176 304 174Q313 172 317 172Q322 172 326 174Q337 180 347 177Q360 174 370 180Q380 186 383 185Q387 183 390 187Q396 198 396 248Q396 269 394 273Q389 287 389 349Q387 416 384 425Q380 435 383 450Q387 463 383 468Q380 474 380 482Q380 497 387 512ZM195 496Q216 497 251 497Q329 497 345 480Q351 474 351 468Q351 459 338 445Q333 440 325 430Q317 431 296 434Q255 438 209 445Q164 453 160 456Q153 462 153 476Q153 484 155 487Q158 495 195 496ZM202 381Q202 383 206 383Q209 383 221 380Q232 378 237 378Q241 378 243 380Q244 383 257 383Q281 383 287 377Q291 373 304 373Q338 373 338 343Q338 337 337 333Q332 309 298 309Q297 309 294 310Q291 310 289 310Q202 319 191 323Q183 325 175 325Q167 325 157 334Q146 343 146 350Q146 356 157 367Q167 377 184 377Q202 377 202 381ZM240 270Q243 273 253 270Q263 266 269 269Q276 273 282 270Q287 267 316 267Q347 267 360 259Q378 248 378 232Q378 223 371 217Q357 207 356 206Q352 203 313 203Q259 203 217 207Q193 209 183 209Q181 209 172 208Q172 208 171 208Q166 208 158 218Q151 227 151 234Q151 243 159 250Q167 257 178 259Q194 261 194 265Q194 269 215 269Q238 269 240 270Z"/>
<path transform="translate(4959.0 -1075.2)" d="M309 500Q312 502 319 509Q323 506 335 497Q355 480 355 464Q355 453 347 443Q338 430 327 430Q316 430 300 440Q289 447 286 451Q284 454 285 461Q290 481 309 500ZM171 467Q171 469 170 472Q170 475 170 476Q170 505 193 505Q204 505 216 497Q229 488 230 471Q231 456 219 444Q208 434 201 434Q195 434 184 440Q173 446 171 467ZM401 495Q412 505 417 505Q421 505 434 500Q457 490 457 468Q457 454 445 442Q433 430 419 430Q412 430 399 435Q386 441 386 460Q386 479 401 495ZM77 493Q85 501 92 501Q98 501 108 495Q128 480 128 468Q128 459 118 449Q109 438 93 438Q80 438 75 446Q69 455 69 467Q69 482 77 493ZM51 327Q51 355 66 373Q80 390 103 390Q112 390 117 394Q123 397 126 397Q132 397 141 392Q146 390 174 388Q202 385 232 383Q264 382 269 381Q284 379 296 386Q307 392 314 387Q319 383 327 383Q334 383 346 389Q354 393 362 393Q365 393 379 391Q399 387 411 387Q441 387 456 358Q463 344 463 288Q463 168 455 129Q452 116 436 109Q418 100 415 100Q409 100 401 119Q393 137 393 152Q393 264 401 272Q406 278 406 286Q406 295 401 297Q398 299 398 311Q398 318 396 321Q393 323 385 324Q379 324 367 324Q352 322 274 322Q193 322 172 324Q129 326 122 326Q120 326 117 326Q116 324 114 258Q112 193 112 165Q112 152 105 133Q98 115 92 111Q90 109 71 115Q65 117 53 121Q53 127 53 145Q53 153 53 167Q52 182 52 186Q52 207 52 248Q52 263 52 291Q51 318 51 327ZM205 275Q212 283 224 282Q280 275 315 275Q329 275 333 273Q338 271 345 259Q355 243 355 219Q355 213 355 201Q353 154 351 137Q348 120 341 115Q333 110 327 110Q314 110 304 124Q296 134 294 141Q293 148 293 173Q293 206 287 213Q282 220 257 220Q234 220 228 216Q223 213 217 193Q210 172 209 153Q206 109 178 109Q166 109 160 115Q152 125 152 166Q152 178 153 182Q157 212 170 242Q171 245 173 250Q175 256 176 259Q177 262 180 265Q183 267 188 267Q199 267 205 275Z"/>
<path transform="translate(5473.0 -1075.2)" d="M87 512Q95 512 118 512Q172 508 190 502Q209 496 216 479Q222 464 222 374Q222 355 222 317Q222 169 218 157Q215 145 201 137Q190 131 187 131Q184 131 180 137Q160 165 160 200Q160 204 160 212Q160 216 160 226Q160 245 158 253Q155 262 158 272Q160 281 160 295Q160 307 159 313Q157 332 157 339Q157 341 158 344Q158 345 158 347Q163 355 163 395Q163 414 162 424Q161 445 153 451Q144 456 114 456Q80 456 72 460Q63 464 63 480Q63 508 87 512ZM285 495Q298 508 310 493Q319 480 322 446Q325 412 327 311Q327 282 327 250Q328 218 328 202Q329 185 329 184Q329 180 341 176Q353 172 365 172Q367 172 369 173Q371 173 372 173Q375 174 380 174Q397 174 416 164Q435 155 435 144Q435 139 423 127Q419 123 411 115Q398 115 358 117Q308 119 297 123Q286 127 276 147Q267 168 267 186Q267 194 268 197Q270 209 270 211Q270 215 269 223Q268 230 268 237Q268 240 268 246Q270 266 270 299Q270 334 274 340Q278 344 278 417Q278 467 279 478Q280 489 285 495ZM390 490Q392 495 400 495Q409 496 414 492Q427 482 431 456Q434 429 435 346Q435 328 435 293Q435 253 429 243Q422 230 419 230Q417 230 411 228Q404 226 388 241Q371 255 374 262Q376 266 378 340Q378 409 382 417Q383 418 383 435Q383 467 390 490ZM59 365Q67 381 79 381Q84 381 91 377Q102 371 106 348Q111 326 111 264Q111 187 113 167Q114 162 114 155Q114 145 103 138Q90 127 85 127Q79 127 71 134Q63 140 63 145Q63 150 59 160Q55 167 53 227Q51 303 51 310Q51 349 59 365Z"/>
<path transform="translate(6267.2 -1075.2)" d="M267 506Q267 508 273 508Q278 508 287 507Q296 506 299 506Q300 506 301 506Q303 506 313 506Q324 507 331 507Q354 507 387 505Q403 505 420 497Q425 494 434 489Q434 442 434 300Q434 164 433 136Q432 109 428 106Q404 98 294 88Q275 86 246 86Q215 86 197 88Q151 93 127 93Q84 93 72 108Q68 112 64 137Q60 162 60 182Q60 184 60 188Q60 191 60 200Q60 284 54 343Q53 350 53 364Q53 377 55 383Q56 385 56 389Q56 392 55 401Q53 410 53 414Q53 420 54 422Q55 424 55 428Q55 431 53 437Q51 442 51 445Q51 451 55 455Q61 465 61 471Q61 477 70 483Q78 489 86 489Q97 489 101 474Q104 459 106 412Q109 350 113 254Q118 158 119 157Q120 156 150 154Q207 151 226 151Q241 151 243 153Q245 157 253 154Q261 152 272 152Q292 152 319 156Q350 160 366 163Q384 165 391 169Q397 174 397 186Q397 190 395 203Q392 225 395 233Q399 242 396 255Q393 267 393 349Q393 430 387 436Q381 442 343 442Q338 442 329 442Q218 442 210 434Q205 429 205 381Q205 365 207 324Q211 264 221 264Q223 264 227 266Q231 269 273 269Q313 269 318 272Q323 274 326 274Q338 274 353 263Q368 252 368 239Q368 232 366 229Q360 219 351 212Q340 204 260 204Q241 204 216 198Q203 194 195 194Q188 194 177 198Q161 203 161 207Q160 226 156 260Q153 294 150 319Q146 346 146 348Q146 355 149 384Q152 413 154 438Q155 447 157 465Q157 469 170 484Q182 499 195 496Q197 495 201 495Q205 495 211 498Q217 501 222 501Q224 501 226 501Q237 499 238 502Q240 504 244 504Q246 504 252 503Q258 502 261 502Q267 502 267 506ZM258 399Q272 401 278 401Q303 401 313 381Q322 367 316 351Q309 327 278 327Q261 327 256 334Q251 342 249 368Q248 378 247 397Q250 398 258 399Z"/>
<path transform="translate(6752.2 -1075.2)" d="M88 499Q101 500 110 500Q114 500 117 500Q127 500 168 498Q200 497 213 491Q226 485 231 472Q234 463 234 420Q234 360 230 347Q226 332 211 323Q201 315 190 314Q180 313 141 312Q82 312 77 314Q70 316 63 326Q57 335 57 344Q57 345 58 347Q58 348 58 349Q65 373 102 373Q108 373 126 371Q129 371 136 371Q151 371 165 373Q171 374 183 377Q183 385 183 409Q183 439 175 444Q163 450 152 446Q150 446 146 446Q143 445 142 445Q137 445 130 449Q122 452 109 452Q85 452 75 462Q65 471 68 482Q70 493 72 495Q75 497 88 499ZM381 493Q385 499 394 499Q409 499 418 486Q427 474 427 444Q427 426 424 400Q423 392 423 376Q423 349 427 317Q436 243 436 182Q436 152 433 141Q428 122 418 117Q391 110 243 110Q106 110 82 113Q57 116 53 135Q51 143 51 200Q53 238 54 245Q55 253 62 260Q73 268 73 275Q73 282 102 282Q118 282 141 284Q164 287 175 287Q182 287 201 285Q219 283 224 283Q244 283 253 302Q257 310 257 324Q257 328 257 336Q256 344 256 348Q256 364 259 371Q264 390 268 432Q272 495 289 495Q297 495 308 488Q318 481 319 475Q321 472 321 452Q321 382 314 339Q310 304 310 282Q310 263 308 258Q306 252 298 245Q281 230 271 230Q269 230 268 231Q266 233 254 229Q251 228 183 225Q116 221 112 219Q108 215 108 193Q108 190 108 184Q109 175 118 175Q128 175 130 171Q131 169 170 169Q233 169 249 173Q259 176 269 170Q278 166 298 172Q310 175 322 175Q334 175 341 174Q365 171 370 173Q375 176 375 204Q375 213 373 225Q370 237 367 264Q364 292 362 300Q359 321 359 330Q359 333 360 339Q360 345 360 349Q360 353 358 380Q356 404 356 413Q356 421 357 422Q360 425 362 441Q366 473 381 493Z"/>
<path transform="translate(7239.2 -1075.2)" d="M397 534Q397 537 400 537Q402 537 404 536Q406 535 420 531Q435 528 450 525Q464 522 464 521Q464 520 466 517Q468 515 471 511Q474 508 476 505Q480 501 486 493Q486 446 486 307Q486 128 483 113Q478 93 449 93Q436 93 432 104Q427 119 426 121Q422 133 422 266Q422 315 423 331Q426 388 426 416Q426 442 422 452Q418 461 407 461Q402 461 390 459Q378 457 323 457Q244 457 226 461Q201 466 150 466Q129 466 89 466Q87 469 81 477Q73 485 73 495Q73 502 81 509Q91 518 128 520Q193 523 213 523Q230 523 232 521Q234 519 256 519Q345 519 352 526Q357 531 367 526Q370 524 378 524Q397 524 397 534ZM218 401Q222 406 243 399Q255 396 270 396Q273 396 278 396Q279 396 281 397Q284 397 286 397Q304 397 347 386Q362 382 372 366Q375 360 382 350Q381 329 380 266Q378 176 373 148Q369 120 356 112Q349 108 331 101Q312 95 304 95Q303 95 302 95Q300 96 255 100Q211 103 210 103Q204 105 188 101Q176 98 125 96Q116 96 97 96Q74 96 63 105Q51 117 51 129Q51 142 68 156Q84 168 98 168Q116 168 152 168Q155 168 168 168Q181 169 188 169Q213 169 218 174Q224 180 236 174Q249 167 272 167Q312 167 312 180Q312 185 310 194Q307 202 307 205Q307 211 310 217Q316 226 316 282Q316 323 312 327Q311 328 269 331Q227 335 184 338Q141 341 139 341Q134 342 123 344Q113 345 103 346Q95 348 87 351Q78 353 73 357Q69 361 69 368Q69 370 71 376Q77 389 93 393Q109 397 155 397Q214 397 218 401ZM195 286Q196 287 197 288Q201 292 209 288Q210 287 211 286Q212 286 213 285Q215 285 216 284Q234 275 244 275Q255 275 263 268Q270 261 270 250Q270 231 257 225Q243 218 199 218Q189 218 170 218Q103 219 92 225Q73 236 73 247Q73 255 85 267Q94 275 141 278Q189 281 195 286Z"/>
<path transform="translate(8084.4 -1075.2)" d="M421 528Q429 534 434 534Q440 534 442 528Q446 522 452 522Q460 522 470 516Q479 510 479 504Q479 497 483 493Q487 488 490 437Q494 386 494 341Q494 313 492 299Q485 266 457 254Q428 242 353 240Q350 240 343 240Q325 240 315 250Q292 274 292 318Q292 322 292 329Q294 361 294 378Q294 398 297 403Q300 408 318 413Q330 416 334 416Q339 416 347 407Q356 394 356 373Q356 366 356 353Q356 343 354 311Q359 312 375 312Q406 313 414 317Q423 321 429 335Q436 353 433 359Q432 360 430 411Q430 454 426 460Q423 465 407 462Q388 459 338 459Q248 459 201 465Q138 472 116 473Q63 477 63 495Q63 510 91 517Q119 523 195 525Q274 527 280 527Q283 527 293 527Q304 526 321 525Q338 524 352 524Q362 524 381 524Q414 524 421 528ZM186 413Q194 417 205 417Q239 417 254 389Q262 375 262 296Q262 274 261 267Q258 244 248 234Q238 226 230 226Q204 226 201 322Q201 327 201 339Q191 339 163 340Q160 340 152 340Q123 340 120 337Q115 334 115 295Q115 288 115 273Q115 214 116 200Q118 185 124 181Q131 176 138 183Q145 190 158 184Q171 178 182 184Q191 189 200 184Q205 181 226 181Q268 181 278 188Q283 194 293 187Q301 183 306 183Q316 185 335 187Q359 191 369 191Q374 191 375 190Q384 187 396 187Q413 187 421 193Q427 197 430 197Q433 197 461 185Q495 169 495 156Q495 150 489 139Q477 116 432 116Q430 116 426 116Q423 116 413 116Q236 116 208 110Q199 108 197 112Q196 114 179 114Q136 114 118 108Q115 106 111 106Q104 106 93 110Q88 112 77 116Q75 116 69 131Q63 145 61 155Q57 173 55 175Q51 181 51 268Q51 277 51 295Q51 398 70 404Q74 407 78 410Q82 414 84 413Q86 413 95 411Q101 409 104 409Q110 409 118 412Q126 416 132 416Q137 416 139 415Q143 415 155 412Q166 409 172 409Q181 409 186 413Z"/>
<path transform="translate(8630.4 -1075.2)" d="M259 506Q260 508 262 508Q265 508 270 506Q284 501 297 501Q303 501 307 503Q308 504 310 504Q316 504 325 497Q333 489 335 482Q338 473 338 426Q338 386 337 359Q336 330 334 323Q333 316 326 309Q316 300 309 300Q302 300 293 309Q284 319 284 354Q284 400 286 417Q287 426 289 445Q285 446 274 449Q270 450 258 450Q221 450 216 443Q214 441 212 400Q207 315 185 315Q180 315 178 317Q169 323 164 381Q164 396 160 402Q156 407 162 413Q167 420 163 426Q159 433 161 455Q162 473 170 485Q178 498 189 498Q195 498 198 503Q200 507 210 503Q216 500 230 500Q256 500 259 506ZM69 490Q74 497 76 497Q79 498 88 493Q108 484 108 454Q108 453 107 449Q106 444 106 442Q104 422 95 416Q90 412 82 412Q69 412 58 432Q51 445 51 451Q51 455 56 467Q60 480 69 490ZM384 484Q391 498 403 498Q415 498 425 486Q435 476 435 452Q435 428 427 420Q418 411 409 411Q402 411 394 415Q376 423 376 455Q376 471 384 484ZM72 395Q82 402 94 390Q102 382 102 350Q102 287 111 283Q116 280 134 278Q152 274 163 265Q170 258 172 249Q173 241 173 202Q173 181 173 140Q171 131 162 122Q154 113 143 112Q123 108 95 108Q76 108 72 110Q54 119 54 139Q54 150 60 158Q67 165 80 163Q82 163 86 163Q92 163 96 165Q99 167 103 170Q109 173 112 175Q121 180 121 201Q121 227 100 227Q92 227 79 239Q67 250 61 261Q57 272 57 302Q57 386 72 395ZM427 146Q427 119 389 119Q387 119 382 119Q378 120 376 120Q346 122 335 135Q325 148 323 188Q321 217 317 220Q317 221 317 221Q316 222 316 223Q316 237 329 263Q332 271 348 271Q382 271 382 316Q382 336 380 348Q378 367 378 369Q378 377 384 383Q392 391 407 390Q420 389 423 378Q427 368 429 327Q430 296 433 275Q434 271 434 263Q434 220 388 220Q372 220 372 212Q372 207 374 196Q377 180 389 176Q417 165 422 161Q427 157 427 146Z"/>
<path transform="translate(9116.4 -1075.2)" d="M334 492Q339 497 355 497Q381 497 389 490Q392 487 400 487Q408 487 411 477Q415 465 415 459Q415 427 372 427Q208 424 206 422Q205 421 205 328Q205 297 206 236Q203 231 194 219Q175 196 143 196Q137 196 115 198Q60 205 56 224Q50 251 50 372Q50 430 53 446Q55 463 61 467Q63 469 69 469Q85 469 90 455Q92 450 96 384Q101 258 111 254Q123 248 132 248Q139 248 144 253Q150 257 150 275Q150 296 148 314Q145 360 145 382Q145 385 146 398Q146 411 146 418Q146 461 163 481Q169 490 179 490Q188 490 196 489Q218 486 259 486Q327 486 334 492ZM295 382Q303 384 305 384Q306 384 316 381Q326 378 331 378Q335 378 337 380Q341 384 347 384Q352 384 361 380Q370 377 373 377Q381 377 393 367Q401 358 401 353Q401 346 389 332Q379 322 365 322Q360 322 353 322Q346 323 334 324Q323 325 312 326Q273 330 265 334Q257 339 257 357Q257 369 262 372Q267 376 295 382ZM348 290Q353 293 361 291Q382 286 394 275Q406 265 406 255Q406 243 387 234Q376 230 329 230Q271 230 261 236Q252 240 250 253Q249 265 262 275Q275 287 286 284Q296 282 298 285Q300 288 323 288Q346 289 348 290ZM191 179Q196 183 201 178Q210 171 248 171Q264 171 266 174Q268 177 283 174Q287 172 302 172Q321 172 332 174Q356 176 360 176Q376 176 389 172Q397 170 413 167Q416 167 417 156Q417 153 417 149Q417 143 416 137Q411 121 395 116Q379 112 328 111Q282 111 231 114Q181 117 148 118Q98 119 86 121Q74 124 65 132Q56 139 56 148Q56 158 63 165Q72 173 130 174Q186 174 191 179Z"/>
<path transform="translate(9584.4 -1075.2)" d="M397 534Q397 537 400 537Q402 537 404 536Q406 535 420 531Q435 528 450 525Q464 522 464 521Q464 520 466 517Q468 515 471 511Q474 508 476 505Q480 501 486 493Q486 446 486 307Q486 128 483 113Q478 93 449 93Q436 93 432 104Q427 119 426 121Q422 133 422 266Q422 315 423 331Q426 388 426 416Q426 442 422 452Q418 461 407 461Q402 461 390 459Q378 457 323 457Q244 457 226 461Q201 466 150 466Q129 466 89 466Q87 469 81 477Q73 485 73 495Q73 502 81 509Q91 518 128 520Q193 523 213 523Q230 523 232 521Q234 519 256 519Q345 519 352 526Q357 531 367 526Q370 524 378 524Q397 524 397 534ZM218 401Q222 406 243 399Q255 396 270 396Q273 396 278 396Q279 396 281 397Q284 397 286 397Q304 397 347 386Q362 382 372 366Q375 360 382 350Q381 329 380 266Q378 176 373 148Q369 120 356 112Q349 108 331 101Q312 95 304 95Q303 95 302 95Q300 96 255 100Q211 103 210 103Q204 105 188 101Q176 98 125 96Q116 96 97 96Q74 96 63 105Q51 117 51 129Q51 142 68 156Q84 168 98 168Q116 168 152 168Q155 168 168 168Q181 169 188 169Q213 169 218 174Q224 180 236 174Q249 167 272 167Q312 167 312 180Q312 185 310 194Q307 202 307 205Q307 211 310 217Q316 226 316 282Q316 323 312 327Q311 328 269 331Q227 335 184 338Q141 341 139 341Q134 342 123 344Q113 345 103 346Q95 348 87 351Q78 353 73 357Q69 361 69 368Q69 370 71 376Q77 389 93 393Q109 397 155 397Q214 397 218 401ZM195 286Q196 287 197 288Q201 292 209 288Q210 287 211 286Q212 286 213 285Q215 285 216 284Q234 275 244 275Q255 275 263 268Q270 261 270 250Q270 231 257 225Q243 218 199 218Q189 218 170 218Q103 219 92 225Q73 236 73 247Q73 255 85 267Q94 275 141 278Q189 281 195 286Z"/>
<path transform="translate(10122.4 -1075.2)" d="M267 506Q267 508 273 508Q278 508 287 507Q296 506 299 506Q300 506 301 506Q303 506 313 506Q324 507 331 507Q354 507 387 505Q403 505 420 497Q425 494 434 489Q434 442 434 300Q434 164 433 136Q432 109 428 106Q404 98 294 88Q275 86 246 86Q215 86 197 88Q151 93 127 93Q84 93 72 108Q68 112 64 137Q60 162 60 182Q60 184 60 188Q60 191 60 200Q60 284 54 343Q53 350 53 364Q53 377 55 383Q56 385 56 389Q56 392 55 401Q53 410 53 414Q53 420 54 422Q55 424 55 428Q55 431 53 437Q51 442 51 445Q51 451 55 455Q61 465 61 471Q61 477 70 483Q78 489 86 489Q97 489 101 474Q104 459 106 412Q109 350 113 254Q118 158 119 157Q120 156 150 154Q207 151 226 151Q241 151 243 153Q245 157 253 154Q261 152 272 152Q292 152 319 156Q350 160 366 163Q384 165 391 169Q397 174 397 186Q397 190 395 203Q392 225 395 233Q399 242 396 255Q393 267 393 349Q393 430 387 436Q381 442 343 442Q338 442 329 442Q218 442 210 434Q205 429 205 381Q205 365 207 324Q211 264 221 264Q223 264 227 266Q231 269 273 269Q313 269 318 272Q323 274 326 274Q338 274 353 263Q368 252 368 239Q368 232 366 229Q360 219 351 212Q340 204 260 204Q241 204 216 198Q203 194 195 194Q188 194 177 198Q161 203 161 207Q160 226 156 260Q153 294 150 319Q146 346 146 348Q146 355 149 384Q152 413 154 438Q155 447 157 465Q157 469 170 484Q182 499 195 496Q197 495 201 495Q205 495 211 498Q217 501 222 501Q224 501 226 501Q237 499 238 502Q240 504 244 504Q246 504 252 503Q258 502 261 502Q267 502 267 506ZM258 399Q272 401 278 401Q303 401 313 381Q322 367 316 351Q309 327 278 327Q261 327 256 334Q251 342 249 368Q248 378 247 397Q250 398 258 399Z"/>
</g>
</svg>
